<?xml version="1.0" encoding="UTF-8"?>
<!DOCTYPE svg PUBLIC "-//W3C//DTD SVG 1.1//EN" "http://www.w3.org/Graphics/SVG/1.1/DTD/svg11.dtd">
<svg xmlns="http://www.w3.org/2000/svg" version="1.1" width="300px" height="100px" style="shape-rendering:geometricPrecision; text-rendering:geometricPrecision; image-rendering:optimizeQuality; fill-rule:evenodd; clip-rule:evenodd" xmlns:xlink="http://www.w3.org/1999/xlink">
  <g><path style="opacity:1" fill="#010101" d="M -0.5,-0.5 C 99.5,-0.5 199.5,-0.5 299.5,-0.5C 299.5,32.8333 299.5,66.1667 299.5,99.5C 199.5,99.5 99.5,99.5 -0.5,99.5C -0.5,66.1667 -0.5,32.8333 -0.5,-0.5 Z"/></g>
  <g><path style="opacity:1" fill="#00b35d" d="M 24.5,16.5 C 30.8333,16.5 37.1667,16.5 43.5,16.5C 43.5,17.5 43.5,18.5 43.5,19.5C 41.8967,19.3118 40.5634,19.8118 39.5,21C 44.208,28.917 49.0413,36.7504 54,44.5C 59.031,36.9667 63.8643,29.3 68.5,21.5C 66.244,20.5791 65.244,18.9124 65.5,16.5C 69.5,16.5 73.5,16.5 77.5,16.5C 77.719,17.675 77.3857,18.675 76.5,19.5C 73.5302,20.6367 71.3635,22.6367 70,25.5C 65.6667,32.8333 61.3333,40.1667 57,47.5C 56.3333,57.5 56.3333,67.5 57,77.5C 58.0113,78.3366 59.1779,78.67 60.5,78.5C 60.5,79.8333 60.5,81.1667 60.5,82.5C 54.1667,82.5 47.8333,82.5 41.5,82.5C 41.2275,80.0418 42.2275,78.3751 44.5,77.5C 45.6656,67.5166 45.8322,57.5166 45,47.5C 40.3333,39.5 35.6667,31.5 31,23.5C 29.4675,21.4376 27.4675,20.1043 25,19.5C 24.5172,18.552 24.3505,17.552 24.5,16.5 Z"/></g>
  <g><path style="opacity:1" fill="#f8f8f8" d="M 132.5,66.5 C 130.167,66.5 127.833,66.5 125.5,66.5C 125.826,57.6506 125.493,48.9839 124.5,40.5C 120.871,48.8764 117.704,57.5431 115,66.5C 112.619,67.435 110.119,67.7683 107.5,67.5C 105.237,59.0455 102.571,50.7121 99.5,42.5C 99.6309,41.6236 99.2975,40.9569 98.5,40.5C 97.502,49.1411 97.1686,57.8078 97.5,66.5C 95.3926,67.4682 93.0593,67.8016 90.5,67.5C 90.5,53.8333 90.5,40.1667 90.5,26.5C 94.226,26.1774 97.8927,26.5108 101.5,27.5C 104.638,36.9148 107.971,46.2481 111.5,55.5C 115.236,45.9573 118.57,36.2906 121.5,26.5C 125.167,26.5 128.833,26.5 132.5,26.5C 132.5,39.8333 132.5,53.1667 132.5,66.5 Z"/></g>
  <g><path style="opacity:1" fill="#f4f4f4" d="M 142.5,26.5 C 145.167,26.5 147.833,26.5 150.5,26.5C 150.334,35.8393 150.5,45.1726 151,54.5C 152.98,59.9055 156.814,61.7389 162.5,60C 164.492,59.4257 165.992,58.259 167,56.5C 167.5,46.5056 167.666,36.5056 167.5,26.5C 170.167,26.5 172.833,26.5 175.5,26.5C 175.933,37.9102 175.433,49.2436 174,60.5C 170.534,65.8878 165.534,68.2212 159,67.5C 152.29,67.9791 147.29,65.3124 144,59.5C 142.569,48.5775 142.069,37.5775 142.5,26.5 Z"/></g>
  <g><path style="opacity:1" fill="#f3f3f3" d="M 193.5,25.5 C 199.852,24.7146 205.686,26.0479 211,29.5C 211.039,32.3317 209.873,34.665 207.5,36.5C 203.829,33.0004 199.496,31.8337 194.5,33C 191.638,34.7859 190.972,37.1192 192.5,40C 197.872,41.5411 203.206,43.2078 208.5,45C 214.197,50.3996 215.03,56.5663 211,63.5C 202.066,68.9801 193.233,68.8134 184.5,63C 183.833,62 183.167,61 182.5,60C 183.88,58.0748 185.38,56.2415 187,54.5C 192.295,60.99 198.295,61.99 205,57.5C 205.825,55.2992 205.325,53.4659 203.5,52C 198.452,50.4877 193.452,48.821 188.5,47C 180.635,37.5277 182.301,30.361 193.5,25.5 Z"/></g>
  <g><path style="opacity:1" fill="#fefffe" d="M 228.5,26.5 C 228.5,39.8333 228.5,53.1667 228.5,66.5C 226.167,66.5 223.833,66.5 221.5,66.5C 221.5,53.1667 221.5,39.8333 221.5,26.5C 223.833,26.5 226.167,26.5 228.5,26.5 Z"/></g>
  <g><path style="opacity:1" fill="#959595" d="M 228.5,26.5 C 229.496,39.9898 229.829,53.6565 229.5,67.5C 226.615,67.8064 223.948,67.4731 221.5,66.5C 223.833,66.5 226.167,66.5 228.5,66.5C 228.5,53.1667 228.5,39.8333 228.5,26.5 Z"/></g>
  <g><path style="opacity:1" fill="#f2f2f2" d="M 251.5,25.5 C 260.564,24.0657 267.564,27.0657 272.5,34.5C 270.772,36.2255 268.772,37.5589 266.5,38.5C 259.955,30.5439 253.455,30.5439 247,38.5C 246.333,43.5 246.333,48.5 247,53.5C 250.139,60.4972 255.306,62.3306 262.5,59C 264.543,57.1886 266.043,55.022 267,52.5C 273.04,54.287 274.04,57.6203 270,62.5C 263.239,67.6955 255.739,68.8622 247.5,66C 240.272,61.1875 236.938,54.3542 237.5,45.5C 237.764,35.6064 242.431,28.9398 251.5,25.5 Z"/></g>
  <g><path style="opacity:1" fill="#6a6a6a" d="M 99.5,42.5 C 98.8333,50.5 98.1667,58.5 97.5,66.5C 97.1686,57.8078 97.502,49.1411 98.5,40.5C 99.2975,40.9569 99.6309,41.6236 99.5,42.5 Z"/></g>
  <g><path style="opacity:1" fill="#acacac" d="M 124.5,40.5 C 125.493,48.9839 125.826,57.6506 125.5,66.5C 127.833,66.5 130.167,66.5 132.5,66.5C 130.052,67.4731 127.385,67.8064 124.5,67.5C 124.5,58.5 124.5,49.5 124.5,40.5 Z"/></g>
</svg>
