<?xml version="1.0" encoding="UTF-8"?>
<!DOCTYPE svg PUBLIC "-//W3C//DTD SVG 1.1//EN" "http://www.w3.org/Graphics/SVG/1.1/DTD/svg11.dtd">
<svg xmlns="http://www.w3.org/2000/svg" version="1.1" width="512px" height="512px" style="shape-rendering:geometricPrecision; text-rendering:geometricPrecision; image-rendering:optimizeQuality; fill-rule:evenodd; clip-rule:evenodd" xmlns:xlink="http://www.w3.org/1999/xlink">
  <g><path style="opacity:0.004" fill="#73cac9" d="M 242.5,14.5 C 251.991,13.342 261.658,13.1754 271.5,14C 261.839,14.4998 252.172,14.6665 242.5,14.5 Z"/></g>
  <g><path style="opacity:0.008" fill="#8c9a9a" d="M 209.5,18.5 C 210.251,17.4265 211.251,17.2599 212.5,18C 211.552,18.4828 210.552,18.6495 209.5,18.5 Z"/></g>
  <g><path style="opacity:0.004" fill="#7f807f" d="M 299.5,18.5 C 299.897,17.475 300.563,17.3083 301.5,18C 300.906,18.4643 300.239,18.631 299.5,18.5 Z"/></g>
  <g><path style="opacity:0.004" fill="#8ba5a5" d="M 192.5,22.5 C 192.897,21.475 193.563,21.3083 194.5,22C 193.906,22.4643 193.239,22.631 192.5,22.5 Z"/></g>
  <g><path style="opacity:0.004" fill="#51b6b6" d="M 316.5,22.5 C 316.897,21.475 317.563,21.3083 318.5,22C 317.906,22.4643 317.239,22.631 316.5,22.5 Z"/></g>
  <g><path style="opacity:0.004" fill="#7f807f" d="M 149.5,37.5 C 150.833,38.1667 150.833,38.1667 149.5,37.5 Z"/></g>
  <g><path style="opacity:0.993" fill="#88ada9" d="M 432.5,92.5 C 431.167,92.8333 431.167,93.1667 432.5,93.5C 436.966,97.801 441.3,102.301 445.5,107C 458.083,123.929 468.916,142.429 478,162.5C 478.684,163.784 478.517,164.951 477.5,166C 479.376,166.918 480.376,168.418 480.5,170.5C 479.167,171.167 479.167,171.833 480.5,172.5C 482.813,175.423 484.147,178.423 484.5,181.5C 483.167,182.167 483.167,182.833 484.5,183.5C 486.931,184.741 486.931,185.908 484.5,187C 486.786,188.917 488.12,191.417 488.5,194.5C 486.839,197.523 487.505,199.857 490.5,201.5C 490.277,202.967 489.944,204.467 489.5,206C 490.654,208.7 491.654,211.367 492.5,214C 490.751,218.014 491.418,221.514 494.5,224.5C 493.833,225.167 493.167,225.833 492.5,226.5C 493.392,232.008 494.392,237.508 495.5,243C 494.222,250.336 494.222,257.67 495.5,265C 495.589,267.713 494.922,270.213 493.5,272.5C 494.963,275.88 494.63,279.047 492.5,282C 495.327,284.157 495.16,285.99 492,287.5C 491.393,290.202 491.56,292.868 492.5,295.5C 491.365,299.514 490.032,303.014 488.5,306C 490.931,307.092 490.931,308.259 488.5,309.5C 487.265,311.017 487.265,312.684 488.5,314.5C 486.615,315.197 486.282,316.197 487.5,317.5C 486.926,319.059 486.26,320.559 485.5,322C 485.833,322.333 486.167,322.667 486.5,323C 483.552,324.01 482.886,325.843 484.5,328.5C 483.786,330.811 482.786,332.978 481.5,335C 481.833,335.333 482.167,335.667 482.5,336C 481.552,336.483 480.552,336.649 479.5,336.5C 480.583,340.685 479.583,344.352 476.5,347.5C 476.727,349.34 476.227,351.34 475,353.5C 474.302,354.691 473.469,355.691 472.5,356.5C 471.167,356.833 471.167,357.167 472.5,357.5C 472.16,359.679 471.16,361.512 469.5,363C 469.833,363.333 470.167,363.667 470.5,364C 468.791,365.916 467.457,368.082 466.5,370.5C 465.5,371.167 464.5,371.833 463.5,372.5C 463.624,373.107 463.957,373.44 464.5,373.5C 460.464,382.581 455.13,390.081 448.5,396C 448.32,399.58 446.32,402.247 442.5,404C 442.959,405.943 441.959,407.276 439.5,408C 439.833,408.333 440.167,408.667 440.5,409C 437.96,411.205 435.793,413.705 434,416.5C 432.5,418.469 430.667,419.802 428.5,420.5C 427.167,420.833 427.167,421.167 428.5,421.5C 426.177,425.042 423.344,427.375 420,428.5C 415.721,434.112 410.721,439.112 405,443.5C 400.678,446.067 396.345,449.4 392,453.5C 391.667,453.167 391.333,452.833 391,452.5C 389.64,454.105 388.14,455.605 386.5,457C 385.551,457.617 384.718,457.451 384,456.5C 382.865,459.707 380.865,461.041 378,460.5C 377.683,462.301 377.016,462.634 376,461.5C 375.578,463.426 374.411,464.426 372.5,464.5C 372.167,463.167 371.833,463.167 371.5,464.5C 367.489,468.177 362.822,470.843 357.5,472.5C 357.44,471.957 357.107,471.624 356.5,471.5C 355.614,472.325 355.281,473.325 355.5,474.5C 348.623,476.404 341.957,479.071 335.5,482.5C 334.284,481.998 333.117,481.665 332,481.5C 331.3,483.032 330.134,484.032 328.5,484.5C 327.005,483.295 325.672,483.295 324.5,484.5C 323.778,484.918 323.278,485.584 323,486.5C 322.667,485.833 322.333,485.167 322,484.5C 319.787,486.581 317.12,487.915 314,488.5C 312.323,487.392 310.823,487.392 309.5,488.5C 304.764,489.979 299.597,491.312 294,492.5C 291.329,491.434 288.829,491.434 286.5,492.5C 284.579,495.106 282.579,495.106 280.5,492.5C 278.715,493.663 276.715,494.33 274.5,494.5C 264.848,495.527 255.181,495.694 245.5,495C 245,494.5 244.5,494 244,493.5C 239.502,495.016 235.169,494.683 231,492.5C 228.835,494.964 226.835,494.964 225,492.5C 222.936,493.591 220.769,493.758 218.5,493C 220.167,492.667 221.833,492.333 223.5,492C 220.798,491.393 218.132,491.56 215.5,492.5C 211.281,492.097 207.447,490.764 204,488.5C 203.667,489.167 203.333,489.833 203,490.5C 202.583,489.244 201.75,488.577 200.5,488.5C 199.177,487.392 197.677,487.392 196,488.5C 192.127,486.95 188.627,485.616 185.5,484.5C 184.833,483.167 184.167,483.167 183.5,484.5C 179.527,483.472 176.193,482.138 173.5,480.5C 172.833,479.167 172.167,479.167 171.5,480.5C 169.418,480.376 167.918,479.376 167,477.5C 165.989,478.337 164.822,478.67 163.5,478.5C 163.719,477.325 163.386,476.325 162.5,475.5C 161.893,475.624 161.56,475.957 161.5,476.5C 112.17,456.405 72.6701,421.072 43,370.5C 42.3828,369.551 42.5494,368.718 43.5,368C 39.2582,363.725 36.2582,358.225 34.5,351.5C 35.8333,350.833 35.8333,350.167 34.5,349.5C 32.9375,347.384 31.6042,345.051 30.5,342.5C 31.6527,341.313 31.6527,340.313 30.5,339.5C 28.8748,337.078 27.5415,334.412 26.5,331.5C 27.6527,330.313 27.6527,329.313 26.5,328.5C 26.0825,327.778 25.4158,327.278 24.5,327C 25.1667,326.667 25.8333,326.333 26.5,326C 24.2993,324.316 23.6327,322.316 24.5,320C 23.6919,319.692 23.0253,319.192 22.5,318.5C 23.7053,317.005 23.7053,315.672 22.5,314.5C 22.0825,313.778 21.4158,313.278 20.5,313C 21.1667,312.667 21.8333,312.333 22.5,312C 21.535,308.859 20.2017,305.526 18.5,302C 20.2452,298.385 19.5785,295.385 16.5,293C 18.5117,291.848 18.6783,290.682 17,289.5C 15.9648,285.301 15.7981,281.134 16.5,277C 15.3986,274.965 14.732,272.798 14.5,270.5C 15.8333,260.167 15.8333,249.833 14.5,239.5C 15.6232,234.979 16.6232,230.479 17.5,226C 16.91,222.997 16.5767,219.997 16.5,217C 17.4295,215.923 18.0962,214.756 18.5,213.5C 19.5824,211.673 19.5824,209.673 18.5,207.5C 19.5853,202.608 20.9186,198.275 22.5,194.5C 23.7053,193.328 23.7053,191.995 22.5,190.5C 23.1842,187.581 24.5175,185.081 26.5,183C 25.8333,182.667 25.1667,182.333 24.5,182C 26.5868,177.343 28.5868,173.176 30.5,169.5C 31.6527,168.687 31.6527,167.687 30.5,166.5C 31.6042,163.949 32.9375,161.616 34.5,159.5C 35.8333,158.833 35.8333,158.167 34.5,157.5C 37.621,148.684 41.9543,141.184 47.5,135C 46.5494,134.282 46.3828,133.449 47,132.5C 48.1667,130.667 49.6667,129.167 51.5,128C 51.3891,123.951 53.3891,120.951 57.5,119C 57.1667,118.667 56.8333,118.333 56.5,118C 60.9633,112.004 65.13,106.504 69,101.5C 79.6667,90.8333 90.6667,79.8333 102,68.5C 102.333,68.8333 102.667,69.1667 103,69.5C 103.724,67.0411 105.057,66.0411 107,66.5C 107.483,65.552 107.649,64.552 107.5,63.5C 108.873,63.6567 110.207,63.49 111.5,63C 111.167,62.6667 110.833,62.3333 110.5,62C 121.368,54.0503 131.701,47.5503 141.5,42.5C 141.56,43.0431 141.893,43.3764 142.5,43.5C 143.386,42.675 143.719,41.675 143.5,40.5C 145.703,40.3964 147.703,39.7298 149.5,38.5C 149.56,39.0431 149.893,39.3764 150.5,39.5C 151.251,38.624 151.751,37.624 152,36.5C 152.333,36.8333 152.667,37.1667 153,37.5C 154.684,35.2993 156.684,34.6327 159,35.5C 161.072,33.2124 163.572,31.5457 166.5,30.5C 167.167,30.8333 167.833,31.1667 168.5,31.5C 168.109,30.1095 168.942,29.1095 171,28.5C 172,28.8333 173,29.1667 174,29.5C 174.7,27.968 175.866,26.968 177.5,26.5C 179.265,26.6952 180.765,26.6952 182,26.5C 182.333,25.8333 182.667,25.1667 183,24.5C 184,24.8333 185,25.1667 186,25.5C 188.013,22.8828 190.513,22.2161 193.5,23.5C 195.425,23.4096 196.592,22.4096 197,20.5C 198.268,20.6158 199.602,20.9491 201,21.5C 202.568,19.7628 204.568,18.7628 207,18.5C 210.615,20.2452 213.615,19.5785 216,16.5C 218.279,16.5497 220.612,16.8831 223,17.5C 225.209,15.2936 227.709,14.9602 230.5,16.5C 231.852,15.1038 233.519,14.4371 235.5,14.5C 249.496,15.8145 263.496,15.8145 277.5,14.5C 279.384,14.7163 281.051,15.383 282.5,16.5C 284.969,14.9934 287.135,15.3268 289,17.5C 291.044,16.228 292.878,16.5614 294.5,18.5C 296.064,15.8645 297.397,16.0311 298.5,19C 303.509,18.2873 308.342,19.1207 313,21.5C 313.333,21.1667 313.667,20.8333 314,20.5C 315.36,23.5511 317.527,24.2177 320.5,22.5C 323.95,23.6514 326.783,24.9848 329,26.5C 329.414,26.0426 329.914,25.7093 330.5,25.5C 330.833,26.1667 331.167,26.8333 331.5,27.5C 334.219,26.7446 336.719,27.4112 339,29.5C 339.333,29.1667 339.667,28.8333 340,28.5C 342.058,29.1095 342.891,30.1095 342.5,31.5C 349.181,31.7479 355.014,34.4146 360,39.5C 363.415,38.8722 366.081,40.2056 368,43.5C 368.414,43.0426 368.914,42.7093 369.5,42.5C 393.359,55.5336 414.359,72.2002 432.5,92.5 Z"/></g>
  <g><path style="opacity:1" fill="#529d76" d="M 199.5,29.5 C 198.859,30.4822 198.193,31.4822 197.5,32.5C 192.807,32.9564 188.474,34.4564 184.5,37C 180.137,37.3694 175.804,37.8694 171.5,38.5C 175.222,36.9839 178.889,35.3172 182.5,33.5C 188.246,32.4576 193.913,31.1242 199.5,29.5 Z"/></g>
  <g><path style="opacity:1" fill="#418b72" d="M 211.5,26.5 C 209.22,28.2227 206.553,28.8893 203.5,28.5C 203.323,30.9806 204.323,32.8139 206.5,34C 222.663,42.5781 238.329,51.9114 253.5,62C 256.167,63 258.833,64 261.5,65C 272.974,72.4412 284.974,79.1078 297.5,85C 301.324,88.0791 305.324,90.9124 309.5,93.5C 320.955,98.5681 331.955,104.735 342.5,112C 351.805,114.983 359.805,119.983 366.5,127C 376.339,129.253 385.005,133.586 392.5,140C 400.406,144.231 408.073,148.731 415.5,153.5C 427.944,161.562 440.611,169.396 453.5,177C 460.73,180.094 467.897,183.261 475,186.5C 476.03,186.164 476.53,185.497 476.5,184.5C 479.813,195.752 482.813,207.085 485.5,218.5C 486.207,221.786 486.54,225.119 486.5,228.5C 484.906,228.92 483.406,229.586 482,230.5C 475.437,228.138 469.603,224.638 464.5,220C 461.833,219 459.167,218 456.5,217C 437.737,205.072 418.404,194.072 398.5,184C 385.167,175.667 371.833,167.333 358.5,159C 334.5,145.667 310.5,132.333 286.5,119C 257.25,100.767 227.25,83.7667 196.5,68C 191.088,62.6281 184.755,58.7948 177.5,56.5C 174.731,54.0349 172.398,51.2015 170.5,48C 168.341,47.088 166.175,46.2546 164,45.5C 163.493,44.0039 163.993,42.8373 165.5,42C 167.879,41.2838 169.879,40.1172 171.5,38.5C 175.804,37.8694 180.137,37.3694 184.5,37C 188.474,34.4564 192.807,32.9564 197.5,32.5C 198.193,31.4822 198.859,30.4822 199.5,29.5C 203.273,27.7437 207.273,26.7437 211.5,26.5 Z"/></g>
  <g><path style="opacity:1" fill="#2f776b" d="M 274.5,22.5 C 307.413,25.703 338.413,34.8697 367.5,50C 373.41,52.8137 378.743,56.4804 383.5,61C 384.833,61.3333 386.167,61.6667 387.5,62C 396.648,68.6537 405.315,75.8203 413.5,83.5C 413.703,85.0443 414.37,86.3777 415.5,87.5C 414.276,89.8392 414.276,92.1725 415.5,94.5C 417.017,93.0892 418.351,93.2559 419.5,95C 419.167,95.3333 418.833,95.6667 418.5,96C 419.833,96 421.167,96 422.5,96C 427.966,102.799 434.132,108.966 441,114.5C 442.886,118.958 445.719,122.625 449.5,125.5C 454.241,131.971 458.241,138.971 461.5,146.5C 462.97,150.864 464.303,155.364 465.5,160C 464.208,162.661 462.875,165.328 461.5,168C 461.695,170.894 463.028,173.061 465.5,174.5C 463.997,175.557 462.33,176.224 460.5,176.5C 455.989,173.505 451.322,170.672 446.5,168C 436.83,164.673 427.83,160.006 419.5,154C 418.207,153.51 416.873,153.343 415.5,153.5C 408.073,148.731 400.406,144.231 392.5,140C 385.005,133.586 376.339,129.253 366.5,127C 359.805,119.983 351.805,114.983 342.5,112C 331.955,104.735 320.955,98.5681 309.5,93.5C 305.324,90.9124 301.324,88.0791 297.5,85C 284.974,79.1078 272.974,72.4412 261.5,65C 258.833,64 256.167,63 253.5,62C 238.329,51.9114 222.663,42.5781 206.5,34C 204.323,32.8139 203.323,30.9806 203.5,28.5C 206.553,28.8893 209.22,28.2227 211.5,26.5C 232.333,22.942 253.333,21.6087 274.5,22.5 Z"/></g>
  <g><path style="opacity:1" fill="#699e90" d="M 274.5,22.5 C 253.333,21.6087 232.333,22.942 211.5,26.5C 207.273,26.7437 203.273,27.7437 199.5,29.5C 193.913,31.1242 188.246,32.4576 182.5,33.5C 204.916,24.5533 228.416,20.5533 253,21.5C 260.341,21.5003 267.508,21.8337 274.5,22.5 Z"/></g>
  <g><path style="opacity:0.004" fill="#7f807f" d="M 141.5,41.5 C 142.833,42.1667 142.833,42.1667 141.5,41.5 Z"/></g>
  <g><path style="opacity:1" fill="#6da192" d="M 182.5,33.5 C 178.889,35.3172 175.222,36.9839 171.5,38.5C 164.703,40.7339 158.37,43.7339 152.5,47.5C 150.965,48.3543 149.632,48.3543 148.5,47.5C 158.91,40.6296 170.243,35.9629 182.5,33.5 Z"/></g>
  <g><path style="opacity:1" fill="#519e74" d="M 171.5,38.5 C 169.879,40.1172 167.879,41.2838 165.5,42C 163.993,42.8373 163.493,44.0039 164,45.5C 166.175,46.2546 168.341,47.088 170.5,48C 172.398,51.2015 174.731,54.0349 177.5,56.5C 184.755,58.7948 191.088,62.6281 196.5,68C 227.25,83.7667 257.25,100.767 286.5,119C 310.5,132.333 334.5,145.667 358.5,159C 371.833,167.333 385.167,175.667 398.5,184C 418.404,194.072 437.737,205.072 456.5,217C 459.167,218 461.833,219 464.5,220C 469.603,224.638 475.437,228.138 482,230.5C 483.406,229.586 484.906,228.92 486.5,228.5C 487.432,239.462 487.765,250.462 487.5,261.5C 486.673,266.985 486.173,272.652 486,278.5C 485.592,276.59 484.425,275.59 482.5,275.5C 480.058,276.036 477.725,276.869 475.5,278C 464.636,285.262 453.636,292.262 442.5,299C 394.408,325.547 346.742,352.881 299.5,381C 276.041,393.562 253.041,406.895 230.5,421C 218.959,427.271 207.292,433.271 195.5,439C 181.927,447.789 168.594,456.622 155.5,465.5C 142.157,459.815 129.824,452.482 118.5,443.5C 119.31,441.202 120.144,438.868 121,436.5C 121.167,424.667 121.333,412.833 121.5,401C 120.617,367.836 120.45,334.669 121,301.5C 118.92,295.855 117.753,290.022 117.5,284C 118.834,272.664 120.168,261.33 121.5,250C 121.333,240.315 119.999,230.815 117.5,221.5C 119.807,214.019 120.974,206.352 121,198.5C 121.383,155.499 121.216,112.499 120.5,69.5C 117.437,71.5377 114.104,73.371 110.5,75C 102.933,83.2368 94.7666,90.7368 86,97.5C 85.6012,97.2716 85.4346,96.9382 85.5,96.5C 92.1667,89.8333 98.8333,83.1667 105.5,76.5C 110.962,72.2637 116.629,68.2637 122.5,64.5C 122.47,65.4972 122.97,66.1639 124,66.5C 134.963,62.2751 144.463,55.9417 152.5,47.5C 158.37,43.7339 164.703,40.7339 171.5,38.5 Z"/></g>
  <g><path style="opacity:1" fill="#62ae7c" d="M 148.5,47.5 C 149.632,48.3543 150.965,48.3543 152.5,47.5C 144.463,55.9417 134.963,62.2751 124,66.5C 122.97,66.1639 122.47,65.4972 122.5,64.5C 126.981,61.7581 131.647,59.2581 136.5,57C 135.748,56.3292 135.414,55.4959 135.5,54.5C 139.674,51.9123 144.007,49.579 148.5,47.5 Z"/></g>
  <g><path style="opacity:1" fill="#6ca192" d="M 135.5,54.5 C 135.414,55.4959 135.748,56.3292 136.5,57C 131.647,59.2581 126.981,61.7581 122.5,64.5C 116.629,68.2637 110.962,72.2637 105.5,76.5C 108.618,72.5514 112.285,69.0514 116.5,66C 122.962,62.37 129.295,58.5366 135.5,54.5 Z"/></g>
  <g><path style="opacity:1" fill="#438d73" d="M 118.5,443.5 C 114.388,441.272 110.388,438.772 106.5,436C 96.264,426.267 86.5973,416.1 77.5,405.5C 79.8531,407.101 82.0198,409.101 84,411.5C 84.498,408.518 84.6646,405.518 84.5,402.5C 85.4938,301.55 85.8271,200.55 85.5,99.5C 84.7666,98.913 83.7666,98.913 82.5,99.5C 83.1667,98.1667 84.1667,97.1667 85.5,96.5C 85.4346,96.9382 85.6012,97.2716 86,97.5C 94.7666,90.7368 102.933,83.2368 110.5,75C 114.104,73.371 117.437,71.5377 120.5,69.5C 121.216,112.499 121.383,155.499 121,198.5C 120.974,206.352 119.807,214.019 117.5,221.5C 119.999,230.815 121.333,240.315 121.5,250C 120.168,261.33 118.834,272.664 117.5,284C 117.753,290.022 118.92,295.855 121,301.5C 120.45,334.669 120.617,367.836 121.5,401C 121.333,412.833 121.167,424.667 121,436.5C 120.144,438.868 119.31,441.202 118.5,443.5 Z"/></g>
  <g><path style="opacity:1" fill="#468877" d="M 413.5,83.5 C 427.366,96.0223 439.366,110.022 449.5,125.5C 445.719,122.625 442.886,118.958 441,114.5C 434.132,108.966 427.966,102.799 422.5,96C 421.167,96 419.833,96 418.5,96C 418.833,95.6667 419.167,95.3333 419.5,95C 418.351,93.2559 417.017,93.0892 415.5,94.5C 414.276,92.1725 414.276,89.8392 415.5,87.5C 414.37,86.3777 413.703,85.0443 413.5,83.5 Z"/></g>
  <g><path style="opacity:1" fill="#63b17b" d="M 158.5,89.5 C 174.048,97.1743 189.048,106.008 203.5,116C 231.759,131.131 259.759,146.798 287.5,163C 304.199,173.346 320.866,183.68 337.5,194C 344.721,196.892 351.721,200.226 358.5,204C 364.89,210.715 372.557,215.382 381.5,218C 391.811,224.493 402.478,230.493 413.5,236C 421.888,242.864 431.221,248.198 441.5,252C 442.574,252.739 443.241,253.739 443.5,255C 442.561,256.944 441.227,258.611 439.5,260C 423.167,269 406.833,278 390.5,287C 383.993,291.086 377.66,295.42 371.5,300C 369.167,300.333 366.833,300.667 364.5,301C 362.129,303.706 359.463,306.039 356.5,308C 338.577,316.962 321.244,326.962 304.5,338C 259.074,363.215 214.074,389.215 169.5,416C 166.204,417.511 162.871,418.677 159.5,419.5C 158.506,309.528 158.173,199.528 158.5,89.5 Z"/></g>
  <g><path style="opacity:0.004" fill="#60fffe" d="M 432.5,92.5 C 433.833,93.1667 433.833,93.1667 432.5,92.5 Z"/></g>
  <g><path style="opacity:1" fill="#6ba091" d="M 105.5,76.5 C 98.8333,83.1667 92.1667,89.8333 85.5,96.5C 84.1667,97.1667 83.1667,98.1667 82.5,99.5C 74.4485,107.949 67.1151,116.949 60.5,126.5C 71.9406,106.721 86.9406,90.0545 105.5,76.5 Z"/></g>
  <g><path style="opacity:1" fill="#2f776b" d="M 84.5,402.5 C 84.6646,405.518 84.498,408.518 84,411.5C 82.0198,409.101 79.8531,407.101 77.5,405.5C 71.991,398.968 66.6577,392.301 61.5,385.5C 57.7808,377.736 53.2808,370.403 48,363.5C 45.8207,358.478 43.6541,353.478 41.5,348.5C 39.5876,341.079 36.9209,334.079 33.5,327.5C 33.4431,326.391 33.1098,325.391 32.5,324.5C 29.714,312.742 27.0473,301.076 24.5,289.5C 23.5139,285.03 23.1805,280.363 23.5,275.5C 23.3334,259.83 23.5001,244.163 24,228.5C 25.8892,220.611 27.0558,212.611 27.5,204.5C 28.0133,200.121 28.8466,195.787 30,191.5C 34.8441,180.14 38.8441,168.474 42,156.5C 42.3826,155.944 42.8826,155.611 43.5,155.5C 45.8901,153.733 47.5568,151.4 48.5,148.5C 50.4628,147.04 52.2962,145.373 54,143.5C 58.3666,133.449 64.6999,124.782 73,117.5C 73.8882,112.007 77.0549,109.34 82.5,109.5C 83.7841,154.659 83.4508,199.826 81.5,245C 83.2711,297.487 84.2711,349.987 84.5,402.5 Z"/></g>
  <g><path style="opacity:1" fill="#6a9f90" d="M 60.5,126.5 C 56.0651,133.6 52.0651,140.933 48.5,148.5C 47.5568,151.4 45.8901,153.733 43.5,155.5C 47.3912,144.707 53.0579,135.04 60.5,126.5 Z"/></g>
  <g><path style="opacity:1" fill="#fdfdfd" d="M 198.5,156.5 C 255.275,188.724 311.942,221.224 368.5,254C 312.319,286.996 255.986,319.829 199.5,352.5C 198.501,287.335 198.168,222.002 198.5,156.5 Z"/></g>
  <g><path style="opacity:0.008" fill="#999999" d="M 34.5,157.5 C 34.5,158.167 34.5,158.833 34.5,159.5C 33.1667,158.833 33.1667,158.167 34.5,157.5 Z"/></g>
  <g><path style="opacity:0.004" fill="#9c9d9c" d="M 30.5,169.5 C 29.8333,168.167 29.8333,168.167 30.5,169.5 Z"/></g>
  <g><path style="opacity:1" fill="#4c9874" d="M 195.5,161.5 C 194.578,212.159 194.245,262.826 194.5,313.5C 194.333,325.171 194.5,336.838 195,348.5C 195.2,350.32 196.034,351.653 197.5,352.5C 197.5,352.833 197.5,353.167 197.5,353.5C 196.207,354.645 195.041,354.311 194,352.5C 193.333,291.167 193.333,229.833 194,168.5C 194.186,165.964 194.686,163.631 195.5,161.5 Z"/></g>
  <g><path style="opacity:1" fill="#dcebe3" d="M 198.5,156.5 C 198.168,222.002 198.501,287.335 199.5,352.5C 199.158,353.338 198.492,353.672 197.5,353.5C 197.5,353.167 197.5,352.833 197.5,352.5C 197.5,288.167 197.5,223.833 197.5,159.5C 197.263,158.209 197.596,157.209 198.5,156.5 Z"/></g>
  <g><path style="opacity:0.004" fill="#7f807f" d="M 480.5,170.5 C 481.833,171.167 481.833,171.833 480.5,172.5C 480.5,171.833 480.5,171.167 480.5,170.5 Z"/></g>
  <g><path style="opacity:1" fill="#387f6d" d="M 461.5,146.5 C 465.233,151.97 467.899,157.97 469.5,164.5C 471.835,171.171 474.168,177.837 476.5,184.5C 476.53,185.497 476.03,186.164 475,186.5C 467.897,183.261 460.73,180.094 453.5,177C 440.611,169.396 427.944,161.562 415.5,153.5C 416.873,153.343 418.207,153.51 419.5,154C 427.83,160.006 436.83,164.673 446.5,168C 451.322,170.672 455.989,173.505 460.5,176.5C 462.33,176.224 463.997,175.557 465.5,174.5C 463.028,173.061 461.695,170.894 461.5,168C 462.875,165.328 464.208,162.661 465.5,160C 464.303,155.364 462.97,150.864 461.5,146.5 Z"/></g>
  <g><path style="opacity:1" fill="#50917d" d="M 195.5,160.5 C 195.842,159.662 196.508,159.328 197.5,159.5C 197.5,223.833 197.5,288.167 197.5,352.5C 196.034,351.653 195.2,350.32 195,348.5C 194.5,336.838 194.333,325.171 194.5,313.5C 195.222,313.918 195.722,314.584 196,315.5C 196.832,263.665 196.665,211.998 195.5,160.5 Z"/></g>
  <g><path style="opacity:0.004" fill="#7f807f" d="M 484.5,181.5 C 485.833,182.167 485.833,182.833 484.5,183.5C 484.5,182.833 484.5,182.167 484.5,181.5 Z"/></g>
  <g><path style="opacity:0.004" fill="#7bc8c7" d="M 22.5,194.5 C 21.475,194.103 21.3083,193.437 22,192.5C 22.4643,193.094 22.631,193.761 22.5,194.5 Z"/></g>
  <g><path style="opacity:0.004" fill="#759392" d="M 488.5,196.5 C 489.525,196.897 489.692,197.563 489,198.5C 488.536,197.906 488.369,197.239 488.5,196.5 Z"/></g>
  <g><path style="opacity:1" fill="#6aa090" d="M 469.5,164.5 C 478.226,181.385 483.559,199.385 485.5,218.5C 482.813,207.085 479.813,195.752 476.5,184.5C 474.168,177.837 471.835,171.171 469.5,164.5 Z"/></g>
  <g><path style="opacity:1" fill="#39816e" d="M 84.5,402.5 C 84.2711,349.987 83.2711,297.487 81.5,245C 83.4508,199.826 83.7841,154.659 82.5,109.5C 77.0549,109.34 73.8882,112.007 73,117.5C 64.6999,124.782 58.3666,133.449 54,143.5C 52.2962,145.373 50.4628,147.04 48.5,148.5C 52.0651,140.933 56.0651,133.6 60.5,126.5C 67.1151,116.949 74.4485,107.949 82.5,99.5C 83.7666,98.913 84.7666,98.913 85.5,99.5C 85.8271,200.55 85.4938,301.55 84.5,402.5 Z"/></g>
  <g><path style="opacity:0.008" fill="#7e9f9f" d="M 18.5,213.5 C 17.4265,212.749 17.2599,211.749 18,210.5C 18.4828,211.448 18.6495,212.448 18.5,213.5 Z"/></g>
  <g><path style="opacity:0.004" fill="#859292" d="M 492.5,217.5 C 493.573,218.251 493.74,219.251 493,220.5C 492.517,219.552 492.351,218.552 492.5,217.5 Z"/></g>
  <g><path style="opacity:1" fill="#569382" d="M 27.5,204.5 C 27.0558,212.611 25.8892,220.611 24,228.5C 23.5001,244.163 23.3334,259.83 23.5,275.5C 22.7321,274.737 22.2321,273.737 22,272.5C 21.0019,254.43 21.6685,236.43 24,218.5C 24.7583,213.597 25.925,208.93 27.5,204.5 Z"/></g>
  <g><path style="opacity:1" fill="#327a6b" d="M 195.5,160.5 C 196.665,211.998 196.832,263.665 196,315.5C 195.722,314.584 195.222,313.918 194.5,313.5C 194.245,262.826 194.578,212.159 195.5,161.5C 195.5,161.167 195.5,160.833 195.5,160.5 Z"/></g>
  <g><path style="opacity:1" fill="#438d73" d="M 487.5,261.5 C 487.666,267.509 487.499,273.509 487,279.5C 485.497,296.526 482.163,313.192 477,329.5C 476.392,331.066 475.558,332.4 474.5,333.5C 474.691,330.017 475.357,326.684 476.5,323.5C 472.869,323.16 469.536,323.994 466.5,326C 455.49,332.84 444.156,339.174 432.5,345C 430.959,346.371 429.625,347.871 428.5,349.5C 420.553,354.724 412.053,359.058 403,362.5C 385.007,373.488 367.174,384.654 349.5,396C 326.181,406.829 303.848,419.496 282.5,434C 259.749,444.873 238.082,457.54 217.5,472C 212.027,475.155 206.361,477.822 200.5,480C 201.056,480.383 201.389,480.883 201.5,481.5C 185.26,478.361 169.927,473.028 155.5,465.5C 168.594,456.622 181.927,447.789 195.5,439C 207.292,433.271 218.959,427.271 230.5,421C 253.041,406.895 276.041,393.562 299.5,381C 346.742,352.881 394.408,325.547 442.5,299C 453.636,292.262 464.636,285.262 475.5,278C 477.725,276.869 480.058,276.036 482.5,275.5C 484.425,275.59 485.592,276.59 486,278.5C 486.173,272.652 486.673,266.985 487.5,261.5 Z"/></g>
  <g><path style="opacity:0.004" fill="#6da9a9" d="M 492.5,289.5 C 493.573,290.251 493.74,291.251 493,292.5C 492.517,291.552 492.351,290.552 492.5,289.5 Z"/></g>
  <g><path style="opacity:0.004" fill="#88a7a7" d="M 17.5,296.5 C 18.5735,297.251 18.7401,298.251 18,299.5C 17.5172,298.552 17.3505,297.552 17.5,296.5 Z"/></g>
  <g><path style="opacity:0.004" fill="#7c9e9e" d="M 488.5,309.5 C 489.573,310.251 489.74,311.251 489,312.5C 488.517,311.552 488.351,310.552 488.5,309.5 Z"/></g>
  <g><path style="opacity:1" fill="#5f9987" d="M 24.5,289.5 C 27.0473,301.076 29.714,312.742 32.5,324.5C 28.0666,313.348 25.4,301.682 24.5,289.5 Z"/></g>
  <g><path style="opacity:0.008" fill="#679e9e" d="M 22.5,314.5 C 22.631,315.239 22.4643,315.906 22,316.5C 21.3083,315.563 21.475,314.897 22.5,314.5 Z"/></g>
  <g><path style="opacity:0.004" fill="#46b9b8" d="M 484.5,325.5 C 485.833,326.167 485.833,326.167 484.5,325.5 Z"/></g>
  <g><path style="opacity:0.008" fill="#619e9d" d="M 26.5,328.5 C 25.8333,329.167 25.8333,329.167 26.5,328.5 Z"/></g>
  <g><path style="opacity:1" fill="#3c8270" d="M 474.5,333.5 C 469.977,348.545 463.311,362.545 454.5,375.5C 458.955,367.045 462.955,358.378 466.5,349.5C 464.876,349.36 463.71,350.027 463,351.5C 462.221,349.193 462.721,347.193 464.5,345.5C 462.516,344.294 460.516,344.294 458.5,345.5C 457.453,344.078 457.453,342.578 458.5,341C 456.963,340.617 455.63,339.784 454.5,338.5C 446.07,342.771 437.403,346.438 428.5,349.5C 429.625,347.871 430.959,346.371 432.5,345C 444.156,339.174 455.49,332.84 466.5,326C 469.536,323.994 472.869,323.16 476.5,323.5C 475.357,326.684 474.691,330.017 474.5,333.5 Z"/></g>
  <g><path style="opacity:0.004" fill="#7f807f" d="M 480.5,337.5 C 481.833,338.167 481.833,338.167 480.5,337.5 Z"/></g>
  <g><path style="opacity:1" fill="#5c9885" d="M 33.5,327.5 C 36.9209,334.079 39.5876,341.079 41.5,348.5C 37.0027,342.289 34.3361,335.289 33.5,327.5 Z"/></g>
  <g><path style="opacity:0.004" fill="#768887" d="M 30.5,339.5 C 29.8333,340.167 29.8333,340.167 30.5,339.5 Z"/></g>
  <g><path style="opacity:1" fill="#2f776b" d="M 454.5,375.5 C 451.004,379.819 448.004,384.485 445.5,389.5C 439.874,395.396 434.707,401.729 430,408.5C 421.833,416.667 413.667,424.833 405.5,433C 397.705,437.555 390.705,443.055 384.5,449.5C 375.112,454.24 365.779,459.073 356.5,464C 355.833,465 355.167,466 354.5,467C 347.531,468.322 341.198,470.989 335.5,475C 329.095,476.802 322.761,478.802 316.5,481C 309.138,481.783 301.804,482.783 294.5,484C 293.328,484.419 292.328,485.085 291.5,486C 270.848,487.349 250.181,487.682 229.5,487C 219.853,486.081 210.519,484.248 201.5,481.5C 201.389,480.883 201.056,480.383 200.5,480C 206.361,477.822 212.027,475.155 217.5,472C 238.082,457.54 259.749,444.873 282.5,434C 303.848,419.496 326.181,406.829 349.5,396C 367.174,384.654 385.007,373.488 403,362.5C 412.053,359.058 420.553,354.724 428.5,349.5C 437.403,346.438 446.07,342.771 454.5,338.5C 455.63,339.784 456.963,340.617 458.5,341C 457.453,342.578 457.453,344.078 458.5,345.5C 460.516,344.294 462.516,344.294 464.5,345.5C 462.721,347.193 462.221,349.193 463,351.5C 463.71,350.027 464.876,349.36 466.5,349.5C 462.955,358.378 458.955,367.045 454.5,375.5 Z"/></g>
  <g><path style="opacity:0.008" fill="#a1aead" d="M 476.5,347.5 C 477.833,348.167 477.833,348.167 476.5,347.5 Z"/></g>
  <g><path style="opacity:0.004" fill="#5fc1c0" d="M 34.5,349.5 C 34.5,350.167 34.5,350.833 34.5,351.5C 33.1667,350.833 33.1667,350.167 34.5,349.5 Z"/></g>
  <g><path style="opacity:0.004" fill="#b8b9b8" d="M 472.5,356.5 C 473.833,357.167 473.833,357.167 472.5,356.5 Z"/></g>
  <g><path style="opacity:0.004" fill="#7f807f" d="M 464.5,372.5 C 465.833,373.167 465.833,373.167 464.5,372.5 Z"/></g>
  <g><path style="opacity:0.004" fill="#9ffffe" d="M 428.5,420.5 C 429.833,421.167 429.833,421.167 428.5,420.5 Z"/></g>
  <g><path style="opacity:1" fill="#609b87" d="M 445.5,389.5 C 441.408,396.677 436.574,403.343 431,409.5C 417.031,424.995 401.531,438.329 384.5,449.5C 390.705,443.055 397.705,437.555 405.5,433C 413.667,424.833 421.833,416.667 430,408.5C 434.707,401.729 439.874,395.396 445.5,389.5 Z"/></g>
  <g><path style="opacity:0.008" fill="#a1aead" d="M 371.5,464.5 C 371.833,464.5 372.167,464.5 372.5,464.5C 372.315,465.17 371.981,465.17 371.5,464.5 Z"/></g>
  <g><path style="opacity:0.004" fill="#7f807f" d="M 357.5,472.5 C 356.833,473.167 356.833,473.167 357.5,472.5 Z"/></g>
  <g><path style="opacity:0.004" fill="#47b8b7" d="M 161.5,476.5 C 162.833,477.167 162.833,477.167 161.5,476.5 Z"/></g>
  <g><path style="opacity:0.004" fill="#9dc7c6" d="M 171.5,480.5 C 172.167,480.5 172.833,480.5 173.5,480.5C 172.833,481.833 172.167,481.833 171.5,480.5 Z"/></g>
  <g><path style="opacity:0.004" fill="#62c6c6" d="M 183.5,484.5 C 184.167,484.5 184.833,484.5 185.5,484.5C 184.833,485.833 184.167,485.833 183.5,484.5 Z"/></g>
  <g><path style="opacity:0.004" fill="#4bcdcc" d="M 324.5,484.5 C 325.239,484.369 325.906,484.536 326.5,485C 325.563,485.692 324.897,485.525 324.5,484.5 Z"/></g>
  <g><path style="opacity:0.004" fill="#909494" d="M 200.5,488.5 C 200.103,489.525 199.437,489.692 198.5,489C 199.094,488.536 199.761,488.369 200.5,488.5 Z"/></g>
  <g><path style="opacity:0.004" fill="#7f807f" d="M 309.5,488.5 C 310.239,488.369 310.906,488.536 311.5,489C 310.563,489.692 309.897,489.525 309.5,488.5 Z"/></g>
  <g><path style="opacity:0.004" fill="#b5b5b5" d="M 286.5,492.5 C 287.873,492.343 289.207,492.51 290.5,493C 288.934,493.765 287.601,493.598 286.5,492.5 Z"/></g>
</svg>
