<svg xmlns="http://www.w3.org/2000/svg" xmlns:xlink="http://www.w3.org/1999/xlink" width="300" zoomAndPan="magnify" viewBox="0 0 224.87999 74.999997" height="100" preserveAspectRatio="xMidYMid meet" version="1.0"><defs><clipPath id="f3a73a1ecc"><path d="M 18.511719 12.46875 L 58.242188 12.46875 L 58.242188 61.945312 L 18.511719 61.945312 Z M 18.511719 12.46875 " clip-rule="nonzero"/></clipPath></defs><g clip-path="url(#f3a73a1ecc)"><path fill="#00bf63" d="M 56.742188 15.566406 C 57.144531 15.410156 57.523438 15.277344 57.820312 15.179688 C 58.199219 15.050781 58.441406 14.699219 58.441406 14.304688 L 58.441406 13.433594 C 58.441406 12.910156 58.019531 12.488281 57.496094 12.488281 L 50.484375 12.488281 C 49.980469 12.488281 49.558594 12.910156 49.558594 13.433594 L 49.558594 14.332031 C 49.558594 14.710938 49.792969 15.050781 50.144531 15.1875 C 50.539062 15.339844 51.070312 15.574219 51.539062 15.835938 C 51.792969 15.980469 51.882812 16.292969 51.726562 16.535156 L 41.324219 34.175781 C 41.179688 34.425781 40.820312 34.425781 40.675781 34.175781 L 30.230469 16.445312 C 30.078125 16.195312 30.175781 15.863281 30.4375 15.734375 C 31.03125 15.457031 31.625 15.257812 32.058594 15.132812 C 32.453125 15.023438 32.722656 14.664062 32.722656 14.25 L 32.722656 13.421875 C 32.722656 12.902344 32.300781 12.476562 31.777344 12.476562 L 19.457031 12.476562 C 18.9375 12.488281 18.511719 12.910156 18.511719 13.433594 L 18.511719 14.234375 C 18.511719 14.65625 18.808594 15.023438 19.222656 15.125 C 19.636719 15.222656 20.195312 15.367188 20.816406 15.574219 C 21.789062 15.898438 22.597656 16.574219 23.121094 17.453125 L 34.332031 36.476562 C 34.683594 37.070312 34.875 37.757812 34.875 38.449219 L 34.875 57.210938 C 34.875 58.164062 34.261719 59.011719 33.363281 59.300781 C 32.9375 59.433594 32.550781 59.550781 32.246094 59.632812 C 31.875 59.730469 31.625 60.074219 31.625 60.460938 L 31.625 61.378906 C 31.625 61.882812 32.03125 62.285156 32.535156 62.285156 L 44.925781 62.285156 C 45.429688 62.285156 45.832031 61.882812 45.832031 61.378906 L 45.832031 60.460938 C 45.832031 60.074219 45.582031 59.738281 45.214844 59.632812 C 44.90625 59.550781 44.511719 59.433594 44.097656 59.300781 C 43.195312 59.011719 42.585938 58.15625 42.585938 57.210938 L 42.585938 38.449219 C 42.585938 37.757812 42.773438 37.070312 43.125 36.476562 L 54.15625 17.761719 C 54.734375 16.753906 55.652344 15.980469 56.742188 15.566406 Z M 56.742188 15.566406 " fill-opacity="1" fill-rule="nonzero"/></g></svg>