<svg xmlns="http://www.w3.org/2000/svg" xmlns:xlink="http://www.w3.org/1999/xlink" width="1024" zoomAndPan="magnify" viewBox="0 0 768 374.999991" height="500" preserveAspectRatio="xMidYMid meet" version="1.0"><defs><g/><clipPath id="1719619982"><path d="M 63.226562 100.070312 L 202.726562 100.070312 L 202.726562 274 L 63.226562 274 Z M 63.226562 100.070312 " clip-rule="nonzero"/></clipPath></defs><rect x="-76.8" width="921.6" fill="#ffffff" y="-37.499999" height="449.999989" fill-opacity="1"/><rect x="-76.8" width="921.6" fill="#000000" y="-37.499999" height="449.999989" fill-opacity="1"/><g clip-path="url(#1719619982)"><path fill="#00bf63" d="M 196.515625 110.851562 C 197.925781 110.316406 199.246094 109.847656 200.28125 109.5 C 201.597656 109.0625 202.445312 107.839844 202.445312 106.457031 L 202.445312 103.414062 C 202.445312 101.59375 200.96875 100.121094 199.148438 100.121094 L 174.707031 100.121094 C 172.949219 100.121094 171.476562 101.59375 171.476562 103.414062 L 171.476562 106.550781 C 171.476562 107.871094 172.292969 109.0625 173.515625 109.53125 C 174.894531 110.066406 176.746094 110.882812 178.378906 111.792969 C 179.257812 112.292969 179.570312 113.390625 179.039062 114.238281 L 142.765625 175.738281 C 142.265625 176.617188 141.007812 176.617188 140.507812 175.738281 L 104.078125 113.925781 C 103.546875 113.046875 103.890625 111.886719 104.800781 111.445312 C 106.871094 110.472656 108.941406 109.785156 110.449219 109.34375 C 111.828125 108.96875 112.769531 107.714844 112.769531 106.269531 L 112.769531 103.382812 C 112.769531 101.5625 111.296875 100.089844 109.476562 100.089844 L 66.519531 100.089844 C 64.699219 100.121094 63.226562 101.59375 63.226562 103.414062 L 63.226562 106.207031 C 63.226562 107.679688 64.261719 108.96875 65.703125 109.3125 C 67.148438 109.660156 69.09375 110.160156 71.257812 110.882812 C 74.648438 112.011719 77.472656 114.363281 79.289062 117.441406 L 118.386719 183.769531 C 119.609375 185.839844 120.269531 188.226562 120.269531 190.640625 L 120.269531 256.0625 C 120.269531 259.386719 118.136719 262.335938 114.996094 263.339844 C 113.523438 263.8125 112.175781 264.21875 111.105469 264.503906 C 109.820312 264.847656 108.941406 266.039062 108.941406 267.390625 L 108.941406 270.589844 C 108.941406 272.347656 110.355469 273.757812 112.109375 273.757812 L 155.316406 273.757812 C 157.074219 273.757812 158.484375 272.347656 158.484375 270.589844 L 158.484375 267.390625 C 158.484375 266.039062 157.609375 264.878906 156.320312 264.503906 C 155.253906 264.21875 153.875 263.8125 152.429688 263.339844 C 149.292969 262.335938 147.160156 259.355469 147.160156 256.0625 L 147.160156 190.640625 C 147.160156 188.226562 147.816406 185.839844 149.042969 183.769531 L 187.507812 118.507812 C 189.519531 114.992188 192.71875 112.292969 196.515625 110.851562 Z M 196.515625 110.851562 " fill-opacity="1" fill-rule="nonzero"/></g><g fill="#ffffff" fill-opacity="1"><g transform="translate(222.801131, 232.81708)"><g><path d="M 33.078125 0 L 13.8125 0 L 13.8125 -106.28125 L 41.296875 -106.28125 L 68.1875 -28.140625 L 69.71875 -28.140625 L 96.46875 -106.28125 L 123.296875 -106.28125 L 123.296875 0 L 103.375 0 L 103.375 -70.234375 L 101.5625 -70.515625 L 76.984375 0 L 59.46875 0 L 34.890625 -70.515625 L 33.078125 -70.234375 Z M 33.078125 0 "/></g></g></g><g fill="#ffffff" fill-opacity="1"><g transform="translate(359.931929, 232.81708)"><g><path d="M 56.34375 1.53125 C 41.707031 1.53125 30.847656 -1.945312 23.765625 -8.90625 C 16.691406 -15.863281 13.15625 -26.175781 13.15625 -39.84375 L 13.15625 -106.28125 L 33.734375 -106.28125 L 33.734375 -39.984375 C 33.734375 -32.234375 35.597656 -26.414062 39.328125 -22.53125 C 43.054688 -18.65625 48.726562 -16.71875 56.34375 -16.71875 C 71.414062 -16.71875 78.953125 -24.472656 78.953125 -39.984375 L 78.953125 -106.28125 L 99.53125 -106.28125 L 99.53125 -39.84375 C 99.53125 -26.175781 95.988281 -15.863281 88.90625 -8.90625 C 81.832031 -1.945312 70.976562 1.53125 56.34375 1.53125 Z M 56.34375 1.53125 "/></g></g></g><g fill="#ffffff" fill-opacity="1"><g transform="translate(472.572489, 232.81708)"><g><path d="M 47.109375 1.53125 C 39.742188 1.53125 33.1875 0.625 27.4375 -1.1875 C 21.695312 -3.007812 16.910156 -5.398438 13.078125 -8.359375 C 9.253906 -11.316406 6.328125 -14.566406 4.296875 -18.109375 L 15.84375 -32.203125 L 17.671875 -32.203125 C 20.867188 -27.453125 24.925781 -23.671875 29.84375 -20.859375 C 34.757812 -18.046875 40.515625 -16.640625 47.109375 -16.640625 C 52.734375 -16.640625 56.972656 -17.828125 59.828125 -20.203125 C 62.691406 -22.578125 64.125 -25.851562 64.125 -30.03125 C 64.125 -32.550781 63.660156 -34.65625 62.734375 -36.34375 C 61.816406 -38.039062 60.289062 -39.492188 58.15625 -40.703125 C 56.03125 -41.921875 53.148438 -42.96875 49.515625 -43.84375 L 35.84375 -46.96875 C 26.289062 -49.144531 19.175781 -52.765625 14.5 -57.828125 C 9.820312 -62.898438 7.484375 -69.484375 7.484375 -77.578125 C 7.484375 -83.585938 8.984375 -88.867188 11.984375 -93.421875 C 14.992188 -97.972656 19.367188 -101.507812 25.109375 -104.03125 C 30.859375 -106.550781 37.734375 -107.8125 45.734375 -107.8125 C 53.921875 -107.8125 60.929688 -106.734375 66.765625 -104.578125 C 72.609375 -102.421875 77.539062 -99.113281 81.5625 -94.65625 L 71.171875 -80.40625 L 69.359375 -80.40625 C 66.347656 -83.550781 62.90625 -85.910156 59.03125 -87.484375 C 55.15625 -89.066406 50.722656 -89.859375 45.734375 -89.859375 C 39.960938 -89.859375 35.570312 -88.835938 32.5625 -86.796875 C 29.5625 -84.765625 28.0625 -81.957031 28.0625 -78.375 C 28.0625 -75.03125 29.113281 -72.363281 31.21875 -70.375 C 33.332031 -68.382812 36.984375 -66.832031 42.171875 -65.71875 L 56.125 -62.8125 C 66.445312 -60.632812 73.929688 -56.9375 78.578125 -51.71875 C 83.234375 -46.507812 85.5625 -39.710938 85.5625 -31.328125 C 85.5625 -24.691406 84.128906 -18.910156 81.265625 -13.984375 C 78.410156 -9.066406 74.097656 -5.25 68.328125 -2.53125 C 62.566406 0.175781 55.492188 1.53125 47.109375 1.53125 Z M 47.109375 1.53125 "/></g></g></g><g fill="#ffffff" fill-opacity="1"><g transform="translate(563.847678, 232.81708)"><g><path d="M 34.828125 0 L 13.8125 0 L 13.8125 -106.28125 L 34.828125 -106.28125 Z M 34.828125 0 "/></g></g></g><g fill="#ffffff" fill-opacity="1"><g transform="translate(612.537468, 232.81708)"><g><path d="M 58.09375 1.53125 C 48.300781 1.53125 39.671875 -0.503906 32.203125 -4.578125 C 24.742188 -8.648438 18.90625 -14.769531 14.6875 -22.9375 C 10.46875 -31.101562 8.359375 -41.171875 8.359375 -53.140625 C 8.359375 -65.109375 10.46875 -75.175781 14.6875 -83.34375 C 18.90625 -91.507812 24.742188 -97.628906 32.203125 -101.703125 C 39.671875 -105.773438 48.300781 -107.8125 58.09375 -107.8125 C 68.3125 -107.8125 76.992188 -105.8125 84.140625 -101.8125 C 91.296875 -97.8125 96.398438 -91.71875 99.453125 -83.53125 L 84.109375 -74.15625 L 82.296875 -74.234375 C 80.015625 -79.753906 76.921875 -83.710938 73.015625 -86.109375 C 69.117188 -88.515625 64.144531 -89.71875 58.09375 -89.71875 C 49.269531 -89.71875 42.382812 -86.796875 37.4375 -80.953125 C 32.5 -75.109375 30.03125 -65.835938 30.03125 -53.140625 C 30.03125 -40.492188 32.5 -31.25 37.4375 -25.40625 C 42.382812 -19.5625 49.269531 -16.640625 58.09375 -16.640625 C 71.90625 -16.640625 80.359375 -23.351562 83.453125 -36.78125 L 85.28125 -36.78125 L 100.765625 -28.71875 C 97.859375 -18.632812 92.890625 -11.070312 85.859375 -6.03125 C 78.828125 -0.988281 69.570312 1.53125 58.09375 1.53125 Z M 58.09375 1.53125 "/></g></g></g></svg>