<?xml version="1.0" encoding="UTF-8"?>
<!DOCTYPE svg PUBLIC "-//W3C//DTD SVG 1.1//EN" "http://www.w3.org/Graphics/SVG/1.1/DTD/svg11.dtd">
<svg xmlns="http://www.w3.org/2000/svg" version="1.1" width="108px" height="108px" style="shape-rendering:geometricPrecision; text-rendering:geometricPrecision; image-rendering:optimizeQuality; fill-rule:evenodd; clip-rule:evenodd" xmlns:xlink="http://www.w3.org/1999/xlink">
  <g><path style="opacity:1" fill="#fdfefd" d="M -0.5,-0.5 C 35.5,-0.5 71.5,-0.5 107.5,-0.5C 107.5,35.5 107.5,71.5 107.5,107.5C 71.5,107.5 35.5,107.5 -0.5,107.5C -0.5,71.5 -0.5,35.5 -0.5,-0.5 Z"/></g>
  <g><path style="opacity:1" fill="#7aa69f" d="M 42.5,6.5 C 49.3209,5.3454 56.3209,5.17874 63.5,6C 64.7375,6.23209 65.7375,6.73209 66.5,7.5C 59.8627,6.7243 53.1961,6.39097 46.5,6.5C 45.1667,6.5 43.8333,6.5 42.5,6.5 Z"/></g>
  <g><path style="opacity:1" fill="#30776b" d="M 46.5,6.5 C 53.1961,6.39097 59.8627,6.7243 66.5,7.5C 68.2143,8.73838 70.2143,9.40505 72.5,9.5C 73.5137,10.6737 74.847,11.3404 76.5,11.5C 77.4916,11.3284 78.1583,11.6618 78.5,12.5C 78.9731,13.9063 79.9731,14.573 81.5,14.5C 84.5,18.1667 87.8333,21.5 91.5,24.5C 93.8218,25.8021 95.1551,27.8021 95.5,30.5C 96.1667,32.8333 96.8333,35.1667 97.5,37.5C 97.44,38.0431 97.1067,38.3764 96.5,38.5C 78.7043,28.5331 61.0376,18.3665 43.5,8C 44.7375,7.76791 45.7375,7.26791 46.5,6.5 Z"/></g>
  <g><path style="opacity:1" fill="#8cb1ac" d="M 66.5,7.5 C 68.8984,7.25939 70.8984,7.92606 72.5,9.5C 70.2143,9.40505 68.2143,8.73838 66.5,7.5 Z"/></g>
  <g><path style="opacity:1" fill="#428b72" d="M 42.5,6.5 C 43.8333,6.5 45.1667,6.5 46.5,6.5C 45.7375,7.26791 44.7375,7.76791 43.5,8C 61.0376,18.3665 78.7043,28.5331 96.5,38.5C 97.1067,38.3764 97.44,38.0431 97.5,37.5C 98.3127,39.2608 99.3127,40.9275 100.5,42.5C 100.5,44.5 100.5,46.5 100.5,48.5C 78.2009,36.3505 56.2009,23.6839 34.5,10.5C 37.1667,9.16667 39.8333,7.83333 42.5,6.5 Z"/></g>
  <g><path style="opacity:1" fill="#93b6b0" d="M 42.5,6.5 C 39.8333,7.83333 37.1667,9.16667 34.5,10.5C 31.605,11.3994 28.9384,12.7328 26.5,14.5C 26.1667,14.5 25.8333,14.5 25.5,14.5C 30.2159,9.97706 35.8826,7.31039 42.5,6.5 Z"/></g>
  <g><path style="opacity:1" fill="#8bb0ad" d="M 72.5,9.5 C 74.3797,9.22911 75.713,9.89578 76.5,11.5C 74.847,11.3404 73.5137,10.6737 72.5,9.5 Z"/></g>
  <g><path style="opacity:1" fill="#519e74" d="M 34.5,10.5 C 56.2009,23.6839 78.2009,36.3505 100.5,48.5C 100.817,51.5719 100.484,54.5719 99.5,57.5C 77.2744,70.4436 54.9411,83.1103 32.5,95.5C 31.1667,95.1667 29.8333,94.8333 28.5,94.5C 28.1667,93.5 27.5,92.8333 26.5,92.5C 26.2892,66.4485 26.2892,40.4485 26.5,14.5C 28.9384,12.7328 31.605,11.3994 34.5,10.5 Z"/></g>
  <g><path style="opacity:1" fill="#8eb3ae" d="M 78.5,12.5 C 80.0269,12.427 81.0269,13.0937 81.5,14.5C 79.9731,14.573 78.9731,13.9063 78.5,12.5 Z"/></g>
  <g><path style="opacity:1" fill="#88afa9" d="M 81.5,14.5 C 85.8333,16.8333 89.1667,20.1667 91.5,24.5C 87.8333,21.5 84.5,18.1667 81.5,14.5 Z"/></g>
  <g><path style="opacity:1" fill="#428c73" d="M 25.5,14.5 C 25.8333,14.5 26.1667,14.5 26.5,14.5C 26.2892,40.4485 26.2892,66.4485 26.5,92.5C 26.1667,92.5 25.8333,92.5 25.5,92.5C 23.1667,89.8333 20.8333,87.1667 18.5,84.5C 18.8305,63.9931 18.4972,43.6598 17.5,23.5C 20.1667,20.5 22.8333,17.5 25.5,14.5 Z"/></g>
  <g><path style="opacity:1" fill="#62b07b" d="M 33.5,19.5 C 53.076,30.4071 72.4093,41.7404 91.5,53.5C 72.6194,65.3999 53.286,76.3999 33.5,86.5C 33.5,64.1667 33.5,41.8333 33.5,19.5 Z"/></g>
  <g><path style="opacity:1" fill="#30786b" d="M 17.5,23.5 C 18.4972,43.6598 18.8305,63.9931 18.5,84.5C 17.1667,83.5 15.8333,82.5 14.5,81.5C 13.1103,80.1007 12.1103,78.4341 11.5,76.5C 11.3404,74.847 10.6737,73.5137 9.5,72.5C 6.84167,62.7054 5.84167,52.7054 6.5,42.5C 8.89152,38.0441 11.0582,33.3774 13,28.5C 14.517,26.7605 16.017,25.0938 17.5,23.5 Z"/></g>
  <g><path style="opacity:1" fill="#89b0aa" d="M 25.5,14.5 C 22.8333,17.5 20.1667,20.5 17.5,23.5C 16.017,25.0938 14.517,26.7605 13,28.5C 11.0582,33.3774 8.89152,38.0441 6.5,42.5C 8.90501,30.4405 15.2383,21.1072 25.5,14.5 Z"/></g>
  <g><path style="opacity:1" fill="#92b5b0" d="M 95.5,30.5 C 96.7899,31.0577 97.6232,32.0577 98,33.5C 99.4301,36.3527 100.263,39.3527 100.5,42.5C 99.3127,40.9275 98.3127,39.2608 97.5,37.5C 96.8333,35.1667 96.1667,32.8333 95.5,30.5 Z"/></g>
  <g><path style="opacity:1" fill="#fbfcfb" d="M 43.5,34.5 C 54.5049,40.3329 65.1715,46.6663 75.5,53.5C 64.7238,60.2883 53.7238,66.6216 42.5,72.5C 42.1713,59.6557 42.5046,46.989 43.5,34.5 Z"/></g>
  <g><path style="opacity:1" fill="#c2d8d1" d="M 43.5,34.5 C 42.5046,46.989 42.1713,59.6557 42.5,72.5C 41.814,66.9133 41.4807,60.5799 41.5,53.5C 41.8333,46.8333 42.1667,40.1667 42.5,33.5C 43.1067,33.6236 43.44,33.9569 43.5,34.5 Z"/></g>
  <g><path style="opacity:1" fill="#458d75" d="M 100.5,42.5 C 101.807,48.7343 101.807,55.0676 100.5,61.5C 99.5418,63.3024 98.8751,65.3024 98.5,67.5C 79.667,77.4128 61.3337,88.0794 43.5,99.5C 39.4632,98.9347 35.7966,97.6013 32.5,95.5C 54.9411,83.1103 77.2744,70.4436 99.5,57.5C 100.484,54.5719 100.817,51.5719 100.5,48.5C 100.5,46.5 100.5,44.5 100.5,42.5 Z"/></g>
  <g><path style="opacity:1" fill="#8eb3ae" d="M 6.5,42.5 C 5.84167,52.7054 6.84167,62.7054 9.5,72.5C 7.87143,70.1423 6.70477,67.4757 6,64.5C 5.17818,56.9882 5.34485,49.6549 6.5,42.5 Z"/></g>
  <g><path style="opacity:1" fill="#84ada6" d="M 100.5,61.5 C 100.706,64.4951 100.04,67.1617 98.5,69.5C 98.5,68.8333 98.5,68.1667 98.5,67.5C 98.8751,65.3024 99.5418,63.3024 100.5,61.5 Z"/></g>
  <g><path style="opacity:1" fill="#30786b" d="M 98.5,67.5 C 98.5,68.1667 98.5,68.8333 98.5,69.5C 96.9348,71.5093 95.9348,73.8427 95.5,76.5C 95.6716,77.4916 95.3382,78.1583 94.5,78.5C 93.0937,78.9731 92.427,79.9731 92.5,81.5C 90.7376,82.2623 89.7376,83.5956 89.5,85.5C 86.2358,87.0941 83.5691,89.4275 81.5,92.5C 79.326,92.7497 77.6594,93.7497 76.5,95.5C 73.9823,96.2638 71.649,97.2638 69.5,98.5C 67.1016,98.2594 65.1016,98.9261 63.5,100.5C 62.5,100.5 61.5,100.5 60.5,100.5C 54.7414,100.786 49.0748,100.452 43.5,99.5C 61.3337,88.0794 79.667,77.4128 98.5,67.5 Z"/></g>
  <g><path style="opacity:1" fill="#8db1ae" d="M 9.5,72.5 C 10.6737,73.5137 11.3404,74.847 11.5,76.5C 9.89578,75.713 9.22911,74.3797 9.5,72.5 Z"/></g>
  <g><path style="opacity:1" fill="#afc9c5" d="M 98.5,69.5 C 98.5358,72.461 97.5358,74.7943 95.5,76.5C 95.9348,73.8427 96.9348,71.5093 98.5,69.5 Z"/></g>
  <g><path style="opacity:1" fill="#97b8b5" d="M 94.5,78.5 C 94.573,80.0269 93.9063,81.0269 92.5,81.5C 92.427,79.9731 93.0937,78.9731 94.5,78.5 Z"/></g>
  <g><path style="opacity:1" fill="#a1c0bb" d="M 92.5,81.5 C 92.2624,83.4044 91.2624,84.7377 89.5,85.5C 89.7376,83.5956 90.7376,82.2623 92.5,81.5 Z"/></g>
  <g><path style="opacity:1" fill="#8db3ad" d="M 14.5,81.5 C 15.8333,82.5 17.1667,83.5 18.5,84.5C 20.8333,87.1667 23.1667,89.8333 25.5,92.5C 20.8333,89.8333 17.1667,86.1667 14.5,81.5 Z"/></g>
  <g><path style="opacity:1" fill="#91b5af" d="M 89.5,85.5 C 87.4309,88.5725 84.7642,90.9059 81.5,92.5C 83.5691,89.4275 86.2358,87.0941 89.5,85.5 Z"/></g>
  <g><path style="opacity:1" fill="#92b5b1" d="M 25.5,92.5 C 25.8333,92.5 26.1667,92.5 26.5,92.5C 27.5,92.8333 28.1667,93.5 28.5,94.5C 26.9731,94.573 25.9731,93.9063 25.5,92.5 Z"/></g>
  <g><path style="opacity:1" fill="#89b0aa" d="M 81.5,92.5 C 80.3406,94.2503 78.674,95.2503 76.5,95.5C 77.6594,93.7497 79.326,92.7497 81.5,92.5 Z"/></g>
  <g><path style="opacity:1" fill="#93b6b1" d="M 28.5,94.5 C 29.8333,94.8333 31.1667,95.1667 32.5,95.5C 35.7966,97.6013 39.4632,98.9347 43.5,99.5C 49.0748,100.452 54.7414,100.786 60.5,100.5C 51.3894,102.323 42.3894,101.489 33.5,98C 31.4156,97.3028 29.7489,96.1361 28.5,94.5 Z"/></g>
  <g><path style="opacity:1" fill="#b1cac7" d="M 76.5,95.5 C 74.9103,97.821 72.5769,98.821 69.5,98.5C 71.649,97.2638 73.9823,96.2638 76.5,95.5 Z"/></g>
  <g><path style="opacity:1" fill="#9cbcb8" d="M 69.5,98.5 C 67.8984,100.074 65.8984,100.741 63.5,100.5C 65.1016,98.9261 67.1016,98.2594 69.5,98.5 Z"/></g>
</svg>
