<?xml version="1.0" encoding="UTF-8"?>
<!DOCTYPE svg PUBLIC "-//W3C//DTD SVG 1.1//EN" "http://www.w3.org/Graphics/SVG/1.1/DTD/svg11.dtd">
<svg xmlns="http://www.w3.org/2000/svg" version="1.1" width="192px" height="192px" style="shape-rendering:geometricPrecision; text-rendering:geometricPrecision; image-rendering:optimizeQuality; fill-rule:evenodd; clip-rule:evenodd" xmlns:xlink="http://www.w3.org/1999/xlink">
    <g><path style="opacity:0.946" fill="#85a9a4" d="M 89.5,7.5 C 139.47,9.1001 170.47,33.9334 182.5,82C 182.167,83.6667 181.833,85.3333 181.5,87C 185.053,118.379 173.72,144.712 147.5,166C 110.326,189.963 73.9924,188.629 38.5,162C 5.96869,129.601 -0.531311,93.1013 19,52.5C 35.5013,25.8695 59.0013,10.8695 89.5,7.5 Z"/></g>
    <g><path style="opacity:1" fill="#2f776b" d="M 174.5,66.5 C 174.5,67.5 174.5,68.5 174.5,69.5C 171.575,69.5402 168.909,68.7068 166.5,67C 137.552,49.5197 108.219,32.5197 78.5,16C 77.7476,15.3292 77.4142,14.4959 77.5,13.5C 111.853,7.45298 140.353,17.7863 163,44.5C 167.639,51.4458 171.472,58.7791 174.5,66.5 Z"/></g>
    <g><path style="opacity:1" fill="#418b72" d="M 77.5,13.5 C 77.4142,14.4959 77.7476,15.3292 78.5,16C 108.219,32.5197 137.552,49.5197 166.5,67C 168.909,68.7068 171.575,69.5402 174.5,69.5C 174.5,68.5 174.5,67.5 174.5,66.5C 176.279,71.9562 177.613,77.6228 178.5,83.5C 178.5,84.5 178.5,85.5 178.5,86.5C 176.692,86.5086 175.025,86.0086 173.5,85C 138.493,64.1612 103.16,43.8279 67.5,24C 65.9675,21.9711 64.3008,20.1378 62.5,18.5C 67.0387,15.774 72.0387,14.1073 77.5,13.5 Z"/></g>
    <g><path style="opacity:1" fill="#519e74" d="M 62.5,18.5 C 64.3008,20.1378 65.9675,21.9711 67.5,24C 103.16,43.8279 138.493,64.1612 173.5,85C 175.025,86.0086 176.692,86.5086 178.5,86.5C 178.5,85.5 178.5,84.5 178.5,83.5C 179.49,89.6446 179.823,95.9779 179.5,102.5C 139.028,124.629 99.0283,147.629 59.5,171.5C 54.6285,169.571 50.2951,166.905 46.5,163.5C 47.2803,140.218 47.6136,116.884 47.5,93.5C 47.154,89.9369 46.4874,86.4369 45.5,83C 45.6301,81.9412 46.1301,81.1079 47,80.5C 47.1667,71.8333 47.3333,63.1667 47.5,54.5C 47.4981,45.4733 46.8315,36.8066 45.5,28.5C 50.3678,23.8961 56.0345,20.5628 62.5,18.5 Z"/></g>
    <g><path style="opacity:1" fill="#428c73" d="M 45.5,28.5 C 46.8315,36.8066 47.4981,45.4733 47.5,54.5C 47.3333,63.1667 47.1667,71.8333 47,80.5C 46.1301,81.1079 45.6301,81.9412 45.5,83C 46.4874,86.4369 47.154,89.9369 47.5,93.5C 47.6136,116.884 47.2803,140.218 46.5,163.5C 40.5671,160.533 35.9005,156.2 32.5,150.5C 33.4984,114.671 33.8318,78.6705 33.5,42.5C 32.5,42.5 31.5,42.5 30.5,42.5C 31.1175,40.7708 32.1175,39.2708 33.5,38C 37.3939,34.5956 41.3939,31.4289 45.5,28.5 Z"/></g>
    <g><path style="opacity:1" fill="#62b07a" d="M 60.5,35.5 C 94.9376,55.2223 129.271,75.2223 163.5,95.5C 134.568,112.638 105.568,129.805 76.5,147C 71.2263,149.811 65.893,152.311 60.5,154.5C 60.5,114.833 60.5,75.1667 60.5,35.5 Z"/></g>
    <g><path style="opacity:1" fill="#2f776b" d="M 30.5,42.5 C 31.5,42.5 32.5,42.5 33.5,42.5C 33.8318,78.6705 33.4984,114.671 32.5,150.5C 23.7854,141.085 17.6187,130.085 14,117.5C 7.90963,93.6333 11.243,71.3 24,50.5C 26.0308,47.6447 28.1975,44.978 30.5,42.5 Z"/></g>
    <g><path style="opacity:1" fill="#fcfdfc" d="M 75.5,60.5 C 95.9274,71.744 116.261,83.244 136.5,95C 116.608,106.776 96.6084,118.276 76.5,129.5C 75.5025,106.673 75.1692,83.6727 75.5,60.5 Z"/></g>
    <g><path style="opacity:1" fill="#d1e3dc" d="M 75.5,60.5 C 75.1692,83.6727 75.5025,106.673 76.5,129.5C 76.44,130.043 76.1067,130.376 75.5,130.5C 75.1667,118.667 74.8333,106.833 74.5,95C 74.4898,82.7589 74.8231,71.2589 75.5,60.5 Z"/></g>
    <g><path style="opacity:1" fill="#428c73" d="M 179.5,102.5 C 178.995,108.729 177.661,114.729 175.5,120.5C 170.109,122.693 164.776,125.193 159.5,128C 131.24,144.288 103.24,160.788 75.5,177.5C 69.8698,176.071 64.5365,174.071 59.5,171.5C 99.0283,147.629 139.028,124.629 179.5,102.5 Z"/></g>
    <g><path style="opacity:1" fill="#2f776b" d="M 175.5,120.5 C 168.019,145.275 152.352,162.775 128.5,173C 111.319,179.842 93.6523,181.342 75.5,177.5C 103.24,160.788 131.24,144.288 159.5,128C 164.776,125.193 170.109,122.693 175.5,120.5 Z"/></g>
</svg>
